<?xml version='1.0' encoding='utf-8'?>
<svg xmlns="http://www.w3.org/2000/svg" enable-background="new 0 0 3018.9382 5000" version="1.1" viewBox="0 0 3018.9 5e3"> <path d="m1510.2 0c-273.2 238.89-597.24 637.16-781.8 905.8-9.9302 14.454-26.036 13.65-54.844 14.939-133.29 5.9625-250.02-33.342-470.03 3.2624-47.946 7.977-155.73 32.453-197.44 56.901-6.129 3.5927-7.6208 7.2077-4.4621 12.813 31.304 55.556 144.1 75.059 181.88 89.018 43.251 15.98 90.028 15.381 134.78 32.652 156.3 60.316 172.96 62.827 149.6 98.457-70.194 107.07-33.079 147.51-46.452 220.56-1.1811 6.4537 6.958 8.5449 9.4156 2.9589 5.0581-11.498 12.912-21.691 15.351-34.432 4.3145-22.54 6.0663-45.465 10.876-67.969 1.6489-7.7148 8.3571-12.243 8.5593-20.622 1.0657-44.176 29.827-86.671 69.356-103.66-2.0136 49.934-40.044 115.6-61.423 178.68-29.575 87.265 18.809 142-30.545 260.28-18.369 44.023-26.986 35.83-109.17 120.12-22.848 23.433-49.187 43.198-71.101 67.796-34.758 39.016-66.242 35.084-112.81 76.981-17.054 15.345-21.813 43.499-9.266 62.905 101.23 156.57 182.35 70.399 161.14 162.68-19.773 86.02-48.272 69.124-55.381 96.614-7.4379 28.76 10.393 66.632 39.727 83.904 13.337 7.8528 14.46 17.86 1.3998 26.703-19.606 13.275-32.045 31.894-40.575 52.921-4.6545 11.474-11.586 26.917 0.631 36.353 25.075 19.366 54.661 67.238 41.581 106.8-18.418 55.707-50.324 114.14-6.2507 200.29 18.45 36.065 51.577 57.201 86.022 76.572 50.524 28.414 107.44 34.168 162.21 47.428 64.896 15.711 136.78 1.321 106.95 28.406-43.251 39.271-84.285 24.996-74.136 77.522 3.4448 17.83 13.266 31.829 25.728 43.848 52.684 50.81 5.1777 76.871 44.837 119.29 17.265 18.468 32.66 38.413 25.237 67.452-11.588 45.333-2.7936 87.987 20.822 127.87 2.8645 4.8372 5.6829 9.7529 2.3983 14.89-9.9566 15.572-29.109-19.785-109.38 25.207-27.086 15.181-43.771 38.998-56.256 67.176-34.248 77.294-80.123 64.258-136.97 152.9-16.351 25.498-28.123 53.373-40.475 80.913-1.2958 2.8889-5.3708 6.0305-2.252 9.1057 2.7208 2.6831 6.4543-0.2966 9.5885-1.397 2.512-0.8828 5.0348-1.9304 7.2837-3.3352 94.96-59.312 124.54-75.517 141.79-106.3 19.564-34.913 45.93-46.595 61.512-61.918 36.147-35.548 33.789-98.183 92.919-103.61 11.36-1.0422 18.724 4.0554 22.339 13.911 9.0873 24.776-40.078 16.987-45.946 61.586-1.6968 12.896-1.0285 23.115 10.258 31.392 28.779 21.105-19.159 14.354-44.931 60.586-6.1788 11.083-9.3484 21.718-2.019 33.324 12.053 19.086 33.625 6.8931 55.589 10.18 14.052 2.1023 14.956 2.9011 6.6137 14.651-52.73 74.274-125.57 138.68-171.57 236.85-28.066 59.906-39.47 123.13-56.32 186.15-14.384 53.803-62.02 103.6-88.874 152.83-84.282 154.51-162.04 395.84-137.82 560.53 17.94 121.94 90.301 223.96 221.28 231.77 70.492 4.2026 104.4-14.862 302.55-169.33 279.48-217.88 859.07-714.34 1640.4-658.5 26.18 1.8711 52.31 4.4492 78.35 7.7329 7.3647 0.9287 52.916 13.369 50.179-3-14.5-86.714-113.26-318.95-211.2-509.52-21.39-41.62-49.792-78.752-79.612-114.45-34.812-41.68-55.978-90.779-79.079-138.74-34.255-71.118 25.564-128.89 7.0569-266.18-11.994-88.98-31.547-104.07-8.99-126.74 18.77-18.864 24.725-42.168 18.744-68.594-21.904-96.778-18.286-102.41-16.903-148.4 6.292-209.15 32.927-250.89-27.591-298.33-11.439-8.9673-12.926-18.123-10.897-29.619 1.656-9.3845 6.6189-14.487 18.321-13.552 30.511 2.4377 47.192 24.34 62.863 45.238 32.344 43.133 58.727 90.311 85.092 137.27 102.65 182.84 124.59 361.92 150.47 359.1 53.012-5.7654 57.301-77.242 58.319-117.73 6.5276-259.58-71.62-451.18-152.3-644.34-3.075-7.3616-1.9878-13.267 2.0752-19.326 10.214-15.233 105.08-156.6 143.34-211.32 145.15-207.58 235.04-412.86 561.31-913.75 27.741-42.588 49.948-31.614-1501.7-1097.4z"/> </svg>